<svg width="427" height="317" viewBox="0 0 427 317" fill="none" xmlns="http://www.w3.org/2000/svg">
<path d="M197.918 254.218C180.745 254.218 166.895 268.051 166.895 285.241C166.895 302.325 180.745 316.2 197.918 316.2C215.019 316.2 228.949 302.325 228.949 285.241C228.949 268.051 215.019 254.218 197.918 254.218Z" fill="#17AEAA"/>
<path d="M324.356 254.218C307.213 254.218 293.337 268.051 293.337 285.241C293.337 302.325 307.212 316.2 324.356 316.2C341.457 316.2 355.366 302.325 355.366 285.241C355.366 268.051 341.457 254.218 324.356 254.218Z" fill="#17AEAA"/>
<path d="M155.2 58.707L165.457 93.002H380.442L345.391 209.081H176.977L113.783 0.466995H0V34.502H88.269L151.607 243.355H370.65L426.667 58.707H155.2Z" fill="#17AEAA"/>
</svg>